<svg xmlns="http://www.w3.org/2000/svg" width="39" height="38" viewBox="0 0 39 38" fill="none">
  <g filter="url(#filter0_d_5_17)">
    <path fill-rule="evenodd" clip-rule="evenodd" d="M19.456 0C11.0139 0 4.18921 6.87497 4.18921 15.3802C4.18921 22.179 8.562 27.9339 14.6282 29.9708C15.3867 30.1239 15.6645 29.6399 15.6645 29.2327C15.6645 28.8761 15.6395 27.6539 15.6395 26.3805C11.3926 27.2974 10.5082 24.5471 10.5082 24.5471C9.82575 22.7646 8.8145 22.3065 8.8145 22.3065C7.42451 21.3643 8.91575 21.3643 8.91575 21.3643C10.4576 21.4662 11.2667 22.943 11.2667 22.943C12.6314 25.2855 14.8304 24.6236 15.7151 24.2162C15.8413 23.223 16.246 22.5355 16.6757 22.1537C13.2885 21.7971 9.72481 20.473 9.72481 14.5653C9.72481 12.8846 10.3311 11.5096 11.2917 10.4403C11.1401 10.0584 10.6092 8.47934 11.4436 6.36591C11.4436 6.36591 12.7326 5.95841 15.6392 7.94465C16.8836 7.60799 18.1669 7.43672 19.456 7.43528C20.7451 7.43528 22.0591 7.61372 23.2726 7.94465C26.1794 5.95841 27.4685 6.36591 27.4685 6.36591C28.3029 8.47934 27.7716 10.0584 27.62 10.4403C28.606 11.5096 29.1872 12.8846 29.1872 14.5653C29.1872 20.473 25.6235 21.7715 22.211 22.1537C22.7673 22.6374 23.2473 23.554 23.2473 25.0055C23.2473 27.068 23.2223 28.7233 23.2223 29.2324C23.2223 29.6399 23.5004 30.1239 24.2585 29.9711C30.3247 27.9336 34.6975 22.179 34.6975 15.3802C34.7225 6.87497 27.8729 0 19.456 0Z" fill="white"/>
  </g>
  <defs>
    <filter id="filter0_d_5_17" x="0.189209" y="0" width="38.5084" height="38" filterUnits="userSpaceOnUse" color-interpolation-filters="sRGB">
      <feFlood flood-opacity="0" result="BackgroundImageFix"/>
      <feColorMatrix in="SourceAlpha" type="matrix" values="0 0 0 0 0 0 0 0 0 0 0 0 0 0 0 0 0 0 127 0" result="hardAlpha"/>
      <feOffset dy="4"/>
      <feGaussianBlur stdDeviation="2"/>
      <feComposite in2="hardAlpha" operator="out"/>
      <feColorMatrix type="matrix" values="0 0 0 0 0 0 0 0 0 0 0 0 0 0 0 0 0 0 0.25 0"/>
      <feBlend mode="normal" in2="BackgroundImageFix" result="effect1_dropShadow_5_17"/>
      <feBlend mode="normal" in="SourceGraphic" in2="effect1_dropShadow_5_17" result="shape"/>
    </filter>
  </defs>
</svg>