<svg xmlns="http://www.w3.org/2000/svg" width="38" height="38" viewBox="0 0 38 38" fill="none">
  <g filter="url(#filter0_d_5_16)">
    <path d="M31.7793 0H6.21484C4.99023 0 4 0.966797 4 2.16211V27.832C4 29.0273 4.99023 30 6.21484 30H31.7793C33.0039 30 34 29.0273 34 27.8379V2.16211C34 0.966797 33.0039 0 31.7793 0ZM12.9004 25.5645H8.44727V11.2441H12.9004V25.5645ZM10.6738 9.29297C9.24414 9.29297 8.08984 8.13867 8.08984 6.71484C8.08984 5.29102 9.24414 4.13672 10.6738 4.13672C12.0977 4.13672 13.252 5.29102 13.252 6.71484C13.252 8.13281 12.0977 9.29297 10.6738 9.29297ZM29.5645 25.5645H25.1172V18.6035C25.1172 16.9453 25.0879 14.8066 22.8027 14.8066C20.4883 14.8066 20.1367 16.6172 20.1367 18.4863V25.5645H15.6953V11.2441H19.9609V13.2012H20.0195C20.6113 12.0762 22.0645 10.8867 24.2266 10.8867C28.7324 10.8867 29.5645 13.8516 29.5645 17.707V25.5645Z" fill="white"/>
  </g>
  <defs>
    <filter id="filter0_d_5_16" x="0" y="0" width="38" height="38" filterUnits="userSpaceOnUse" color-interpolation-filters="sRGB">
      <feFlood flood-opacity="0" result="BackgroundImageFix"/>
      <feColorMatrix in="SourceAlpha" type="matrix" values="0 0 0 0 0 0 0 0 0 0 0 0 0 0 0 0 0 0 127 0" result="hardAlpha"/>
      <feOffset dy="4"/>
      <feGaussianBlur stdDeviation="2"/>
      <feComposite in2="hardAlpha" operator="out"/>
      <feColorMatrix type="matrix" values="0 0 0 0 0 0 0 0 0 0 0 0 0 0 0 0 0 0 0.25 0"/>
      <feBlend mode="normal" in2="BackgroundImageFix" result="effect1_dropShadow_5_16"/>
      <feBlend mode="normal" in="SourceGraphic" in2="effect1_dropShadow_5_16" result="shape"/>
    </filter>
  </defs>
</svg>